HIERARCHY
ROOT Hips
{
  OFFSET 5.84602e-005 68.8428 3.50346
  CHANNELS 6 Xposition Yposition Zposition Zrotation Xrotation Yrotation
  JOINT Spine
  {
    OFFSET 0 8.597 -4.6522
    CHANNELS 3 Zrotation Xrotation Yrotation
    JOINT Spine1
    {
      OFFSET 0 7.8454 0.4098
      CHANNELS 3 Zrotation Xrotation Yrotation
      JOINT Spine2
      {
        OFFSET 0 9.7078 -2.1609
        CHANNELS 3 Zrotation Xrotation Yrotation
        JOINT Neck
        {
          OFFSET 0 21.8761 -0.4549
          CHANNELS 3 Zrotation Xrotation Yrotation
          JOINT Head
          {
            OFFSET 0 12.3537 3.3602
            CHANNELS 3 Zrotation Xrotation Yrotation
            End Site
            {
              OFFSET 0.0001 18.9506 0.5657
            }
          }
        }
        JOINT LeftShoulder
        {
          OFFSET 2.2086 21.1115 7.2329
          CHANNELS 3 Zrotation Xrotation Yrotation
          JOINT LeftArm
          {
            OFFSET 13.1193 3.0282 -4.8998
            CHANNELS 3 Zrotation Xrotation Yrotation
            JOINT LeftForeArm
            {
              OFFSET 27.4081 -0.0973053 -0.2375
              CHANNELS 3 Zrotation Xrotation Yrotation
              JOINT LeftHand
              {
                OFFSET 22.8641 0.0662994 -0.1369
                CHANNELS 3 Zrotation Xrotation Yrotation
                JOINT LeftHandIndex1
                {
                  OFFSET 8.8614 0.775009 2.4612
                  CHANNELS 3 Zrotation Xrotation Yrotation
                  JOINT LeftHandIndex2
                  {
                    OFFSET 3.3146 -0.808304 0.5841
                    CHANNELS 3 Zrotation Xrotation Yrotation
                    JOINT LeftHandIndex3
                    {
                      OFFSET 2.2628 -0.552002 0.3989
                      CHANNELS 3 Zrotation Xrotation Yrotation
                      End Site
                      {
                        OFFSET 1.6102 -0.4807 0.2612
                      }
                    }
                  }
                }
                JOINT LeftHandMiddle1
                {
                  OFFSET 8.9937 0.895004 0.2143
                  CHANNELS 3 Zrotation Xrotation Yrotation
                  JOINT LeftHandMiddle2
                  {
                    OFFSET 4.0984 0.0113983 -0.0242
                    CHANNELS 3 Zrotation Xrotation Yrotation
                    JOINT LeftHandMiddle3
                    {
                      OFFSET 2.2716 0.00689697 -0.0138001
                      CHANNELS 3 Zrotation Xrotation Yrotation
                      End Site
                      {
                        OFFSET 2.0404 -0.1441 0.0027
                      }
                    }
                  }
                }
                JOINT LeftHandRing1
                {
                  OFFSET 8.5234 0.597198 -2.0164
                  CHANNELS 3 Zrotation Xrotation Yrotation
                  JOINT LeftHandRing2
                  {
                    OFFSET 3.7188 -0.188293 -0.2328
                    CHANNELS 3 Zrotation Xrotation Yrotation
                    JOINT LeftHandRing3
                    {
                      OFFSET 2.1191 -0.106598 -0.1332
                      CHANNELS 3 Zrotation Xrotation Yrotation
                      End Site
                      {
                        OFFSET 1.8737 -0.2304 -0.0886
                      }
                    }
                  }
                }
                JOINT LeftHandPinky1
                {
                  OFFSET 7.9094 -0.601089 -3.4825
                  CHANNELS 3 Zrotation Xrotation Yrotation
                  JOINT LeftHandPinky2
                  {
                    OFFSET 2.2874 -0.477005 -0.6314
                    CHANNELS 3 Zrotation Xrotation Yrotation
                    JOINT LeftHandPinky3
                    {
                      OFFSET 1.6774 -0.349396 -0.4633
                      CHANNELS 3 Zrotation Xrotation Yrotation
                      End Site
                      {
                        OFFSET 1.4888 -0.4091 -0.3416
                      }
                    }
                  }
                }
                JOINT LeftHandThumb1
                {
                  OFFSET 1.833 -1.3875 1.3896
                  CHANNELS 3 Zrotation Xrotation Yrotation
                  JOINT LeftHandThumb2
                  {
                    OFFSET 3.4129 -1.121 2.5732
                    CHANNELS 3 Zrotation Xrotation Yrotation
                    JOINT LeftHandThumb3
                    {
                      OFFSET 2.2474 -0.804199 1.6192
                      CHANNELS 3 Zrotation Xrotation Yrotation
                      End Site
                      {
                        OFFSET 1.6527 -0.5689 1.1317
                      }
                    }
                  }
                }
              }
            }
          }
        }
        JOINT RightShoulder
        {
          OFFSET -2.2086 21.1115 7.2329
          CHANNELS 3 Zrotation Xrotation Yrotation
          JOINT RightArm
          {
            OFFSET -13.1216 3.0287 -4.9007
            CHANNELS 3 Zrotation Xrotation Yrotation
            JOINT RightForeArm
            {
              OFFSET -27.4081 -0.0973053 -0.2375
              CHANNELS 3 Zrotation Xrotation Yrotation
              JOINT RightHand
              {
                OFFSET -22.8641 0.0664063 -0.1369
                CHANNELS 3 Zrotation Xrotation Yrotation
                JOINT RightHandIndex1
                {
                  OFFSET -8.8614 0.774994 2.4612
                  CHANNELS 3 Zrotation Xrotation Yrotation
                  JOINT RightHandIndex2
                  {
                    OFFSET -3.3146 -0.808304 0.5841
                    CHANNELS 3 Zrotation Xrotation Yrotation
                    JOINT RightHandIndex3
                    {
                      OFFSET -2.2628 -0.552002 0.3989
                      CHANNELS 3 Zrotation Xrotation Yrotation
                      End Site
                      {
                        OFFSET -1.6102 -0.4807 0.2612
                      }
                    }
                  }
                }
                JOINT RightHandMiddle1
                {
                  OFFSET -8.9937 0.894989 0.2143
                  CHANNELS 3 Zrotation Xrotation Yrotation
                  JOINT RightHandMiddle2
                  {
                    OFFSET -4.0984 0.0113983 -0.0242
                    CHANNELS 3 Zrotation Xrotation Yrotation
                    JOINT RightHandMiddle3
                    {
                      OFFSET -2.2716 0.00691223 -0.0138001
                      CHANNELS 3 Zrotation Xrotation Yrotation
                      End Site
                      {
                        OFFSET -2.0404 -0.1441 0.0027
                      }
                    }
                  }
                }
                JOINT RightHandRing1
                {
                  OFFSET -8.5234 0.597198 -2.0164
                  CHANNELS 3 Zrotation Xrotation Yrotation
                  JOINT RightHandRing2
                  {
                    OFFSET -3.7188 -0.188309 -0.2328
                    CHANNELS 3 Zrotation Xrotation Yrotation
                    JOINT RightHandRing3
                    {
                      OFFSET -2.1191 -0.106598 -0.1332
                      CHANNELS 3 Zrotation Xrotation Yrotation
                      End Site
                      {
                        OFFSET -1.8737 -0.2304 -0.0886
                      }
                    }
                  }
                }
                JOINT RightHandPinky1
                {
                  OFFSET -7.9094 -0.601105 -3.4825
                  CHANNELS 3 Zrotation Xrotation Yrotation
                  JOINT RightHandPinky2
                  {
                    OFFSET -2.2874 -0.477005 -0.6314
                    CHANNELS 3 Zrotation Xrotation Yrotation
                    JOINT RightHandPinky3
                    {
                      OFFSET -1.6774 -0.349396 -0.4633
                      CHANNELS 3 Zrotation Xrotation Yrotation
                      End Site
                      {
                        OFFSET -1.4888 -0.4091 -0.3416
                      }
                    }
                  }
                }
                JOINT RightHandThumb1
                {
                  OFFSET -1.833 -1.38751 1.3896
                  CHANNELS 3 Zrotation Xrotation Yrotation
                  JOINT RightHandThumb2
                  {
                    OFFSET -3.41299 -1.12099 2.5732
                    CHANNELS 3 Zrotation Xrotation Yrotation
                    JOINT RightHandThumb3
                    {
                      OFFSET -2.24741 -0.804108 1.6192
                      CHANNELS 3 Zrotation Xrotation Yrotation
                      End Site
                      {
                        OFFSET -1.6527 -0.5689 1.1317
                      }
                    }
                  }
                }
              }
            }
          }
        }
      }
    }
  }
  JOINT RightUpLeg
  {
    OFFSET -9.1966 3.8861 -0.7581
    CHANNELS 3 Zrotation Xrotation Yrotation
    JOINT RightLeg
    {
      OFFSET -0.7359 -41.0265 0
      CHANNELS 3 Zrotation Xrotation Yrotation
      JOINT RightFoot
      {
        OFFSET 0 -40.2855 0
        CHANNELS 3 Zrotation Xrotation Yrotation
        JOINT RightToeBase
        {
          OFFSET 0 -5.6122 11.7359
          CHANNELS 3 Zrotation Xrotation Yrotation
          End Site
          {
            OFFSET 0 0 7.8731
          }
        }
      }
    }
  }
  JOINT LeftUpLeg
  {
    OFFSET 9.1965 3.8864 -0.7581
    CHANNELS 3 Zrotation Xrotation Yrotation
    JOINT LeftLeg
    {
      OFFSET 0.7359 -41.0268 0
      CHANNELS 3 Zrotation Xrotation Yrotation
      JOINT LeftFoot
      {
        OFFSET 0 -40.2855 0
        CHANNELS 3 Zrotation Xrotation Yrotation
        JOINT LeftToeBase
        {
          OFFSET 0 -5.6122 11.7359
          CHANNELS 3 Zrotation Xrotation Yrotation
          End Site
          {
            OFFSET 0 0 7.8731
          }
        }
      }
    }
  }
}
MOTION
Frames:	7
Frame Time:	0.0333333
0.356587 0.96514 8.26191 -0 -81.9773 -0 -0.039996 3.59809 -0.121679 -0.0725332 7.19625 -0.241552 -0.072533 7.19624 -0.241552 18.0081 18.9716 1.96433 11.064 6.21623 11.7856 7.58545 12.6445 11.6708 -81.2901 -1.28045 32.6722 32.9104 9.68551 -83.247 -12.2481 28.0643 0.507247 7.95139e-016 -3.32964e-015 -2.38542e-015 1.57708e-006 1.14238e-006 2.27146e-007 -2.19316e-031 -5.26779e-015 -2.38542e-015 7.95139e-016 -3.32964e-015 -2.38542e-015 -0.0146024 -8.68128e-005 -2.15632e-007 6.36111e-015 4.17448e-015 8.74653e-015 7.95139e-016 -3.32964e-015 -2.38542e-015 -0.0187747 -0.00117616 5.73195e-005 3.32086e-007 4.49294e-008 5.37544e-007 7.95139e-016 -3.32964e-015 -2.38542e-015 -0.0122631 -0.00324613 0.00067065 -3.32661e-007 -4.47786e-008 -5.37588e-007 7.95139e-016 -3.32964e-015 -2.38542e-015 1.57708e-006 1.14238e-006 2.27146e-007 -2.19316e-031 -5.26779e-015 -2.38542e-015 -7.9788 12.5672 -11.6051 81.2571 -1.2665 -32.7665 -32.9567 9.53736 83.4775 12.3879 28.06 -0.551132 -7.95139e-016 -5.86415e-015 -4.77083e-015 -5.29669e-031 -6.36111e-015 -4.77083e-015 -8.27607e-033 -9.93923e-017 -4.77083e-015 -7.95139e-016 -5.86415e-015 -4.77083e-015 0.0150072 -9.06606e-005 -2.16802e-006 -7.15625e-015 -4.77083e-015 -1.11319e-014 -7.95139e-016 -5.86415e-015 -4.77083e-015 0.0189988 -0.00119124 -5.93793e-005 1.59028e-015 2.09718e-014 1.59028e-015 -7.95139e-016 -5.86415e-015 -4.77083e-015 0.0122861 -0.00325604 -0.00067814 -7.04183e-007 -1.23286e-006 8.81335e-007 -7.95139e-016 -5.86415e-015 -4.77083e-015 -5.29669e-031 -6.36111e-015 -4.77083e-015 -8.27607e-033 -9.93923e-017 -4.77083e-015 -59.1256 -11.9939 2.65501 1.90655 40.5169 -3.48582 -3.21036 17.1875 -2.13504 1.37733e-006 8.10319e-007 -4.51519e-007 57.723 -46.4791 21.1875 -174.07 72.8286 177.782 2.91178 14.2736 4.52311 3.18055e-015 -3.18055e-015 -9.54166e-015 
0.355586 0.93556 8.31161 -0 -81.752 -0 -0.0394906 3.48614 -0.121909 -0.0717336 6.97232 -0.24208 -0.0717336 6.97235 -0.242079 17.9747 18.671 2.06744 11.0547 5.76378 11.8745 7.77647 12.9932 11.7367 -81.4057 -1.33653 32.737 32.9104 9.6855 -83.247 -12.3962 28.1892 0.522112 1.04141e-031 -7.50412e-015 7.95139e-016 -7.95139e-016 1.98785e-015 7.95139e-016 -7.95139e-016 5.06901e-015 -7.95139e-016 1.04141e-031 -7.50412e-015 7.95139e-016 -0.0146164 -9.25033e-005 4.95571e-006 -3.86217e-032 2.78299e-015 7.95139e-016 1.04141e-031 -7.50412e-015 7.95139e-016 -0.0187624 -0.00117555 5.59242e-005 5.56597e-015 -8.34896e-015 1.19271e-014 1.04141e-031 -7.50412e-015 7.95139e-016 -0.0122591 -0.00324433 0.000672237 7.95139e-016 -1.68967e-015 -0 1.04141e-031 -7.50412e-015 7.95139e-016 -7.95139e-016 1.98785e-015 7.95139e-016 -7.95139e-016 5.06901e-015 -7.95139e-016 -8.18127 12.9139 -11.6679 81.3722 -1.32236 -32.8338 -32.9567 9.53736 83.4775 12.5402 28.1847 -0.567364 2.38542e-015 8.94531e-016 3.97569e-015 7.95139e-016 -1.78906e-015 3.18055e-015 7.95139e-016 -1.59028e-015 1.59028e-015 2.38542e-015 8.94531e-016 3.97569e-015 0.0150099 -9.05706e-005 -6.35235e-007 1.59028e-015 -2.78299e-015 -1.59028e-015 2.38542e-015 8.94531e-016 3.97569e-015 0.0189944 -0.00119091 -5.59705e-005 3.72503e-007 1.96425e-008 6.24623e-007 2.38542e-015 8.94531e-016 3.97569e-015 0.012259 -0.00324934 -0.000684916 3.73098e-007 1.97862e-008 6.24671e-007 2.38542e-015 8.94531e-016 3.97569e-015 7.95139e-016 -1.78906e-015 3.18055e-015 7.95139e-016 -1.59028e-015 1.59028e-015 -59.2135 -12.2723 2.18719 1.90087 40.9198 -3.5087 -3.03255 17.1746 -2.21041 -1.37792e-006 -8.12525e-007 4.51594e-007 57.8219 -46.6836 21.2697 -174.07 72.8295 177.782 2.75248 14.2744 4.58352 1.14278e-006 4.26576e-007 3.03104e-006 
0.35457 0.90594 8.3612 -0 -81.5267 -0 -0.0389854 3.37421 -0.122136 -0.0709362 6.74847 -0.2426 -0.0709361 6.74848 -0.2426 17.9423 18.3711 2.16994 11.0461 5.31102 11.9634 7.96734 13.3421 11.8015 -81.5212 -1.39273 32.8016 32.9104 9.68551 -83.247 -12.5446 28.314 0.537385 1.59028e-015 3.03147e-015 -1.59028e-015 7.95139e-016 6.11263e-015 -1.59028e-015 1.59028e-015 5.96354e-015 -7.95139e-016 1.59028e-015 3.03147e-015 -1.59028e-015 -0.0146053 -8.92566e-005 4.12435e-006 7.95139e-016 5.31749e-015 -0 1.59028e-015 3.03147e-015 -1.59028e-015 -0.0187515 -0.00117581 6.50799e-005 -5.37945e-032 -1.93815e-015 -1.59028e-015 1.59028e-015 3.03147e-015 -1.59028e-015 -0.0122738 -0.00324831 0.000679827 2.51041e-031 9.0447e-015 -1.59028e-015 1.59028e-015 3.03147e-015 -1.59028e-015 7.95139e-016 6.11263e-015 -1.59028e-015 1.59028e-015 5.96354e-015 -7.95139e-016 -8.38362 13.2607 -11.7295 81.4873 -1.37835 -32.901 -32.9567 9.53737 83.4775 12.6927 28.3094 -0.583982 2.38542e-015 -4.87022e-015 -1.59028e-015 3.18055e-015 1.39149e-015 -0 2.38542e-015 -1.88845e-015 -0 2.38542e-015 -4.87022e-015 -1.59028e-015 0.0149768 -9.17838e-005 5.77917e-006 1.59028e-015 1.2921e-015 -0 2.38542e-015 -4.87022e-015 -1.59028e-015 0.0189889 -0.00119272 -6.03807e-005 9.93129e-032 -3.57812e-015 1.59028e-015 2.38542e-015 -4.87022e-015 -1.59028e-015 0.0122656 -0.00324592 -0.000674461 7.95139e-016 -7.95139e-015 -0 2.38542e-015 -4.87022e-015 -1.59028e-015 3.18055e-015 1.39149e-015 -0 2.38542e-015 -1.88845e-015 -0 -59.304 -12.5494 1.71848 1.89506 41.3216 -3.53142 -2.85454 17.1619 -2.28572 -1.59028e-015 4.77083e-015 3.18055e-015 57.9177 -46.8906 21.3497 -174.067 72.8291 177.782 2.59315 14.275 4.64393 3.11078e-007 -1.25935e-007 1.82903e-008 
0.35354 0.876277 8.41066 -0 -81.3014 -0 -0.0384806 3.26228 -0.12236 -0.0701406 6.52465 -0.243114 -0.0701406 6.52465 -0.243114 17.9101 18.0703 2.27236 11.0382 4.858 12.0521 8.15805 13.6911 11.8652 -81.6366 -1.4491 32.8662 32.9104 9.6855 -83.247 -12.6932 28.4388 0.553003 -3.13482e-007 -4.02186e-008 -5.69459e-007 7.95139e-016 1.49089e-015 -7.95139e-016 1.19271e-015 -1.68967e-015 -7.95139e-016 -3.13482e-007 -4.02186e-008 -5.69459e-007 -0.0146023 -8.92057e-005 9.19204e-007 -3.97569e-016 6.41081e-015 -1.59028e-015 -3.13482e-007 -4.02186e-008 -5.69459e-007 -0.0187477 -0.0011762 6.10827e-005 4.13804e-032 -2.98177e-015 7.95139e-016 -3.13482e-007 -4.02186e-008 -5.69459e-007 -0.0122716 -0.00324686 0.000668289 -3.97569e-016 9.93923e-017 -0 -3.13482e-007 -4.02186e-008 -5.69459e-007 7.95139e-016 1.49089e-015 -7.95139e-016 1.19271e-015 -1.68967e-015 -7.95139e-016 -8.58585 13.6077 -11.7899 81.6022 -1.43452 -32.9681 -32.9567 9.53736 83.4775 12.8455 28.434 -0.600959 -4.77083e-015 9.44227e-015 -7.95139e-015 -5.56597e-015 7.95139e-015 -7.95139e-015 -5.56597e-015 6.55989e-015 -7.95139e-015 -4.77083e-015 9.44227e-015 -7.95139e-015 0.0149894 -9.09123e-005 4.32788e-007 0 3.37934e-015 -0 -4.77083e-015 9.44227e-015 -7.95139e-015 0.0189902 -0.00119233 -5.22389e-005 7.95139e-016 8.84592e-015 4.77083e-015 -4.77083e-015 9.44227e-015 -7.95139e-015 0.0122482 -0.00324158 -0.000668839 -7.95139e-016 8.24956e-015 -1.59028e-015 -4.77083e-015 9.44227e-015 -7.95139e-015 -5.56597e-015 7.95139e-015 -7.95139e-015 -5.56597e-015 6.55989e-015 -7.95139e-015 -59.3968 -12.8257 1.24888 1.88907 41.7231 -3.55402 -2.67645 17.1492 -2.36103 -4.30214e-006 1.85711e-006 2.8257e-006 58.0201 -47.0939 21.4347 -174.068 72.8306 177.781 2.43384 14.2755 4.70435 -3.80291e-007 1.86731e-007 4.9071e-008 
0.352494 0.846574 8.45999 -0 -81.0762 -0 -0.0379758 3.1504 -0.122581 -0.069347 6.30087 -0.24362 -0.0693471 6.30085 -0.24362 17.8788 17.77 2.3743 11.031 4.40468 12.1408 8.34863 14.0404 11.9277 -81.752 -1.50558 32.9306 32.9104 9.68551 -83.247 -12.842 28.5635 0.569035 3.97569e-016 -5.96354e-016 -0 0 2.5345e-015 -0 -3.97569e-016 -6.95746e-016 -0 3.97569e-016 -5.96354e-016 -0 -0.0146202 -8.99432e-005 9.00438e-006 -3.0548e-007 -3.81821e-008 -5.80026e-007 3.97569e-016 -5.96354e-016 -0 -0.0187556 -0.00117589 6.02545e-005 3.05127e-007 3.80668e-008 5.80029e-007 3.97569e-016 -5.96354e-016 -0 -0.0122864 -0.00325541 0.00068161 -1.59028e-015 3.47873e-015 -0 3.97569e-016 -5.96354e-016 -0 0 2.5345e-015 -0 -3.97569e-016 -6.95746e-016 -0 -8.788 13.955 -11.8491 81.7172 -1.49078 -33.0351 -32.9567 9.53736 83.4775 12.9984 28.5586 -0.618391 -8.55194e-032 3.08116e-015 1.59028e-015 -1.71039e-031 3.08116e-015 3.18055e-015 -1.59028e-015 6.16232e-015 -1.59028e-015 -8.55194e-032 3.08116e-015 1.59028e-015 0.0150043 -9.25994e-005 3.48993e-006 -1.59028e-015 9.34288e-015 3.18055e-015 -8.55194e-032 3.08116e-015 1.59028e-015 0.0189945 -0.00118986 -6.57608e-005 -2.38542e-015 1.41137e-014 1.59028e-015 -8.55194e-032 3.08116e-015 1.59028e-015 0.0122794 -0.00325109 -0.000681782 -1.62763e-031 5.86415e-015 1.59028e-015 -8.55194e-032 3.08116e-015 1.59028e-015 -1.71039e-031 3.08116e-015 3.18055e-015 -1.59028e-015 6.16232e-015 -1.59028e-015 -59.4922 -13.1006 0.778346 1.88298 42.1233 -3.57641 -2.49819 17.1368 -2.43632 4.75911e-007 1.56079e-006 -3.21101e-006 58.1187 -47.3 21.5172 -174.066 72.8306 177.782 2.27452 14.2759 4.76478 3.80263e-007 -1.86736e-007 -4.92937e-008 
0.351438 0.816832 8.5092 -0 -80.8509 -0 -0.0374716 3.03856 -0.122799 -0.068556 6.07717 -0.244121 -0.068556 6.07718 -0.244121 17.848 17.4692 2.476 11.0246 3.95115 12.2295 8.53907 14.3897 11.9892 -81.8673 -1.5622 32.9949 32.9104 9.68551 -83.247 -12.9909 28.6883 0.585445 3.97569e-016 -5.46658e-016 -7.95139e-016 0 2.73329e-015 -0 0 2.68359e-015 -0 3.97569e-016 -5.46658e-016 -7.95139e-016 -0.0146167 -8.8967e-005 4.80347e-006 2.98752e-007 3.6067e-008 5.90543e-007 3.97569e-016 -5.46658e-016 -7.95139e-016 -0.0187446 -0.00117702 5.04459e-005 2.98399e-007 3.59513e-008 5.90545e-007 3.97569e-016 -5.46658e-016 -7.95139e-016 -0.0122603 -0.00324376 0.000669199 2.98972e-007 3.58039e-008 5.90592e-007 3.97569e-016 -5.46658e-016 -7.95139e-016 0 2.73329e-015 -0 0 2.68359e-015 -0 -8.99003 14.3023 -11.9072 81.832 -1.54714 -33.102 -32.9567 9.53736 83.4775 13.1516 28.6831 -0.6362 0 5.96354e-015 -0 -0 -4.96962e-016 -0 -7.95139e-016 -5.96354e-016 -1.59028e-015 0 5.96354e-015 -0 0.0150004 -9.06916e-005 1.83513e-006 -3.18055e-015 -8.24956e-015 -7.95139e-015 0 5.96354e-015 -0 0.0189792 -0.00119067 -5.93754e-005 -3.44245e-007 -2.73299e-008 -6.67754e-007 0 5.96354e-015 -0 0.0122527 -0.0032454 -0.000668856 -7.15625e-015 -6.95746e-016 -1.11319e-014 0 5.96354e-015 -0 -0 -4.96962e-016 -0 -7.95139e-016 -5.96354e-016 -1.59028e-015 -59.59 -13.3746 0.306894 1.87665 42.523 -3.59863 -2.31981 17.1245 -2.51159 -4.40239e-006 1.11803e-006 1.63215e-006 58.221 -47.5042 21.6026 -174.066 72.8316 177.781 2.11517 14.2761 4.82521 3.18055e-015 -3.18055e-015 6.36111e-015 
0.350366 0.787052 8.55828 -0 -80.6257 -0 -0.0369679 2.92675 -0.123014 -0.0677671 5.85358 -0.244615 -0.0677671 5.85357 -0.244615 17.8178 17.1685 2.57736 11.0188 3.49735 12.318 8.7294 14.7391 12.0495 -81.9826 -1.61893 33.0591 32.9104 9.68551 -83.247 -13.1402 28.813 0.60225 2.9329e-007 3.38762e-008 6.01009e-007 -3.97569e-016 -5.31749e-015 1.59028e-015 3.97569e-016 -2.08724e-015 3.18055e-015 2.9329e-007 3.38762e-008 6.01009e-007 -0.0146021 -8.98639e-005 -5.74764e-007 -1.19271e-015 5.36719e-015 -1.59028e-015 2.9329e-007 3.38762e-008 6.01009e-007 -0.0187644 -0.00117838 5.3132e-005 -3.97569e-016 -2.08724e-015 -7.95139e-016 2.9329e-007 3.38762e-008 6.01009e-007 -0.0122666 -0.003247 0.000685482 -1.98785e-015 2.18663e-015 -0 2.9329e-007 3.38762e-008 6.01009e-007 -3.97569e-016 -5.31749e-015 1.59028e-015 3.97569e-016 -2.08724e-015 3.18055e-015 -9.19197 14.6497 -11.9641 81.9468 -1.60369 -33.1688 -32.9567 9.53736 83.4775 13.3049 28.8076 -0.654408 1.59028e-015 6.95746e-016 3.18055e-015 -4.96564e-032 8.94531e-016 3.18055e-015 0 4.37326e-015 -0 1.59028e-015 6.95746e-016 3.18055e-015 0.0149894 -8.92318e-005 -3.59387e-006 -1.59028e-015 -5.46658e-015 1.59028e-015 1.59028e-015 6.95746e-016 3.18055e-015 0.0189955 -0.00119301 -5.20813e-005 7.95139e-016 1.19271e-015 1.59028e-015 1.59028e-015 6.95746e-016 3.18055e-015 0.0122874 -0.00324883 -0.000682327 3.31043e-031 -3.97569e-015 4.77083e-015 1.59028e-015 6.95746e-016 3.18055e-015 -4.96564e-032 8.94531e-016 3.18055e-015 0 4.37326e-015 -0 -59.6902 -13.6472 -0.165487 1.87027 42.9217 -3.62069 -2.14131 17.1124 -2.58683 9.04025e-007 -7.14779e-007 2.76121e-006 58.3241 -47.7083 21.6888 -174.066 72.8326 177.781 1.95584 14.2762 4.88561 -4.77083e-015 6.36111e-015 6.36111e-015 
